<mxfile host="65bd71144e" pages="2">
    <diagram id="6IFltMjxNDKRQJQbdvP9" name="Page-1">
        <mxGraphModel dx="1232" dy="1029" grid="0" gridSize="10" guides="1" tooltips="1" connect="1" arrows="1" fold="1" page="0" pageScale="1" pageWidth="850" pageHeight="1100" math="0" shadow="0">
            <root>
                <mxCell id="0"/>
                <mxCell id="1" parent="0"/>
                <mxCell id="q9FI1TOaqOAg2Ot-_LC3-3" value="clean_data.py" style="swimlane;horizontal=0;fillColor=#f8cecc;strokeColor=#b85450;" parent="1" vertex="1">
                    <mxGeometry x="-200" y="-180" width="1530" height="120" as="geometry"/>
                </mxCell>
                <mxCell id="qS-nnotVbw7SOMKdoAuq-129" value="[all text].replace(&quot;@@ &quot;, &quot;&quot;)" style="rounded=0;whiteSpace=wrap;html=1;" parent="q9FI1TOaqOAg2Ot-_LC3-3" vertex="1">
                    <mxGeometry x="1300" y="40" width="160" height="40" as="geometry"/>
                </mxCell>
                <mxCell id="qS-nnotVbw7SOMKdoAuq-148" value="&lt;span style=&quot;font-size: 11px;&quot;&gt;text.split(&quot; &quot;)&lt;/span&gt;" style="rounded=0;whiteSpace=wrap;html=1;" parent="q9FI1TOaqOAg2Ot-_LC3-3" vertex="1">
                    <mxGeometry x="1100" y="40" width="80" height="40" as="geometry"/>
                </mxCell>
                <mxCell id="q9FI1TOaqOAg2Ot-_LC3-4" value="count_words.py" style="swimlane;horizontal=0;fillColor=#f8cecc;strokeColor=#b85450;" parent="1" vertex="1">
                    <mxGeometry x="-200" y="180" width="1510" height="230" as="geometry"/>
                </mxCell>
                <mxCell id="qS-nnotVbw7SOMKdoAuq-16" value="type_amounts.txt" style="swimlane;fillColor=#fff2cc;strokeColor=#d6b656;" parent="q9FI1TOaqOAg2Ot-_LC3-4" vertex="1">
                    <mxGeometry x="240" y="140" width="160" height="70" as="geometry"/>
                </mxCell>
                <mxCell id="qS-nnotVbw7SOMKdoAuq-22" value="'type': count" style="rounded=0;whiteSpace=wrap;html=1;" parent="qS-nnotVbw7SOMKdoAuq-16" vertex="1">
                    <mxGeometry x="10" y="30" width="140" height="30" as="geometry"/>
                </mxCell>
                <mxCell id="qS-nnotVbw7SOMKdoAuq-21" value="value_amounts.txt" style="swimlane;fillColor=#fff2cc;strokeColor=#d6b656;" parent="q9FI1TOaqOAg2Ot-_LC3-4" vertex="1">
                    <mxGeometry x="520" y="140" width="160" height="70" as="geometry"/>
                </mxCell>
                <mxCell id="qS-nnotVbw7SOMKdoAuq-25" value="'value': count" style="rounded=0;whiteSpace=wrap;html=1;" parent="qS-nnotVbw7SOMKdoAuq-21" vertex="1">
                    <mxGeometry x="10" y="30" width="140" height="30" as="geometry"/>
                </mxCell>
                <mxCell id="qS-nnotVbw7SOMKdoAuq-64" value="token_amounts.txt" style="swimlane;fillColor=#fff2cc;strokeColor=#d6b656;" parent="q9FI1TOaqOAg2Ot-_LC3-4" vertex="1">
                    <mxGeometry x="1300" y="140" width="160" height="70" as="geometry"/>
                </mxCell>
                <mxCell id="qS-nnotVbw7SOMKdoAuq-65" value="'token': count" style="rounded=0;whiteSpace=wrap;html=1;" parent="qS-nnotVbw7SOMKdoAuq-64" vertex="1">
                    <mxGeometry x="10" y="30" width="140" height="30" as="geometry"/>
                </mxCell>
                <mxCell id="q9FI1TOaqOAg2Ot-_LC3-7" value="main.py" style="swimlane;horizontal=0;fillColor=#f8cecc;strokeColor=#b85450;" parent="1" vertex="1">
                    <mxGeometry x="-200" y="440" width="2080" height="2640" as="geometry"/>
                </mxCell>
                <mxCell id="q9FI1TOaqOAg2Ot-_LC3-10" value="vocab.init()" style="swimlane;horizontal=0;fillColor=#ffe6cc;strokeColor=#d79b00;" parent="q9FI1TOaqOAg2Ot-_LC3-7" vertex="1">
                    <mxGeometry x="200" y="20" width="220" height="150" as="geometry"/>
                </mxCell>
                <mxCell id="q9FI1TOaqOAg2Ot-_LC3-11" value="vocab.init()" style="swimlane;horizontal=0;fillColor=#ffe6cc;strokeColor=#d79b00;" parent="q9FI1TOaqOAg2Ot-_LC3-7" vertex="1">
                    <mxGeometry x="480" y="20" width="220" height="150" as="geometry"/>
                </mxCell>
                <mxCell id="qS-nnotVbw7SOMKdoAuq-89" value="valori di 'type' e 'value' sostituiti con gli ID del vocabolario appropriato" style="rounded=0;whiteSpace=wrap;html=1;" parent="q9FI1TOaqOAg2Ot-_LC3-7" vertex="1">
                    <mxGeometry x="960" y="180" width="200" height="60" as="geometry"/>
                </mxCell>
                <mxCell id="q9FI1TOaqOAg2Ot-_LC3-12" value="vocab.init()" style="swimlane;horizontal=0;fillColor=#ffe6cc;strokeColor=#d79b00;" parent="q9FI1TOaqOAg2Ot-_LC3-7" vertex="1">
                    <mxGeometry x="1260" y="20" width="220" height="150" as="geometry"/>
                </mxCell>
                <mxCell id="qS-nnotVbw7SOMKdoAuq-37" value="&quot;pair&quot;: tuple(2)" style="swimlane;fillColor=#d5e8d4;strokeColor=#82b366;" parent="q9FI1TOaqOAg2Ot-_LC3-7" vertex="1">
                    <mxGeometry x="1120" y="910" width="520" height="210" as="geometry"/>
                </mxCell>
                <mxCell id="qS-nnotVbw7SOMKdoAuq-38" value="[0] (input_tensor): tensor[vocab_ID], shape = [3, BATCH_SIZE, PHRASE_SIZE]" style="swimlane;fillColor=#e1d5e7;strokeColor=#9673a6;startSize=23;" parent="qS-nnotVbw7SOMKdoAuq-37" vertex="1">
                    <mxGeometry x="10" y="30" width="500" height="130" as="geometry"/>
                </mxCell>
                <mxCell id="qS-nnotVbw7SOMKdoAuq-41" value="[0] (type_input) = BATCH_SIZE righe, PHRASE_SIZE colonne di valori &quot;type&quot;&lt;br&gt;[1] (value_input) = BATCH_SIZE righe, PHRASE_SIZE colonne di valori &quot;value&quot;&lt;br&gt;[2] (position_input) = BATCH_SIZE righe, PHRASE_SIZE con valori da 0 a n-1" style="rounded=0;whiteSpace=wrap;html=1;align=left;spacingLeft=5;" parent="qS-nnotVbw7SOMKdoAuq-38" vertex="1">
                    <mxGeometry x="10" y="35" width="470" height="85" as="geometry"/>
                </mxCell>
                <mxCell id="qS-nnotVbw7SOMKdoAuq-39" value="[1] (target_tensor): matrix[vocab_ID], shape = [BATCH_SIZE, PHRASE_SIZE]" style="swimlane;fillColor=#e1d5e7;strokeColor=#9673a6;startSize=23;" parent="qS-nnotVbw7SOMKdoAuq-37" vertex="1">
                    <mxGeometry x="10" y="170" width="500" height="30" as="geometry"/>
                </mxCell>
                <mxCell id="f2YLth-HtvxDR1Z4kDtg-3" style="edgeStyle=orthogonalEdgeStyle;rounded=0;orthogonalLoop=1;jettySize=auto;html=1;exitX=0.5;exitY=1;exitDx=0;exitDy=0;entryX=0.5;entryY=0;entryDx=0;entryDy=0;" parent="q9FI1TOaqOAg2Ot-_LC3-7" source="f2YLth-HtvxDR1Z4kDtg-1" target="qS-nnotVbw7SOMKdoAuq-37" edge="1">
                    <mxGeometry relative="1" as="geometry"/>
                </mxCell>
                <mxCell id="f2YLth-HtvxDR1Z4kDtg-1" value="ragruppa gli articoli in batch" style="rounded=0;whiteSpace=wrap;html=1;align=left;spacingLeft=4;" parent="q9FI1TOaqOAg2Ot-_LC3-7" vertex="1">
                    <mxGeometry x="1295" y="790" width="170" height="40" as="geometry"/>
                </mxCell>
                <mxCell id="f2YLth-HtvxDR1Z4kDtg-6" style="edgeStyle=orthogonalEdgeStyle;rounded=0;orthogonalLoop=1;jettySize=auto;html=1;exitX=0.5;exitY=1;exitDx=0;exitDy=0;entryX=0.5;entryY=0;entryDx=0;entryDy=0;" parent="q9FI1TOaqOAg2Ot-_LC3-7" source="f2YLth-HtvxDR1Z4kDtg-5" target="q9FI1TOaqOAg2Ot-_LC3-17" edge="1">
                    <mxGeometry relative="1" as="geometry"/>
                </mxCell>
                <mxCell id="f2YLth-HtvxDR1Z4kDtg-5" value="&quot;pairs&quot;: array[pair], len = ITER / BATCH_SIZE" style="swimlane;fillColor=#d5e8d4;strokeColor=#82b366;" parent="q9FI1TOaqOAg2Ot-_LC3-7" vertex="1">
                    <mxGeometry x="1120" y="1150" width="520" height="40" as="geometry"/>
                </mxCell>
                <mxCell id="f2YLth-HtvxDR1Z4kDtg-4" style="edgeStyle=orthogonalEdgeStyle;rounded=0;orthogonalLoop=1;jettySize=auto;html=1;exitX=0.5;exitY=1;exitDx=0;exitDy=0;entryX=0.5;entryY=0;entryDx=0;entryDy=0;" parent="q9FI1TOaqOAg2Ot-_LC3-7" source="qS-nnotVbw7SOMKdoAuq-37" target="f2YLth-HtvxDR1Z4kDtg-5" edge="1">
                    <mxGeometry relative="1" as="geometry">
                        <mxPoint x="1440.1764705882356" y="1130" as="targetPoint"/>
                    </mxGeometry>
                </mxCell>
                <mxCell id="q9FI1TOaqOAg2Ot-_LC3-17" value="&lt;div style=&quot;text-align: left;&quot;&gt;&lt;span style=&quot;background-color: initial;&quot;&gt;for i in range(ITERS)&lt;/span&gt;&lt;/div&gt;&lt;div style=&quot;text-align: left;&quot;&gt;&lt;span style=&quot;background-color: initial;&quot;&gt;&amp;nbsp; &amp;nbsp;input = random.choice(pairs)&lt;/span&gt;&lt;/div&gt;" style="rounded=0;whiteSpace=wrap;html=1;align=center;spacingLeft=0;" parent="q9FI1TOaqOAg2Ot-_LC3-7" vertex="1">
                    <mxGeometry x="1280" y="1230" width="200" height="40" as="geometry"/>
                </mxCell>
                <mxCell id="f2YLth-HtvxDR1Z4kDtg-9" style="edgeStyle=orthogonalEdgeStyle;rounded=0;orthogonalLoop=1;jettySize=auto;html=1;exitX=0.5;exitY=1;exitDx=0;exitDy=0;entryX=0.5;entryY=0;entryDx=0;entryDy=0;" parent="q9FI1TOaqOAg2Ot-_LC3-7" source="qS-nnotVbw7SOMKdoAuq-98" target="f2YLth-HtvxDR1Z4kDtg-1" edge="1">
                    <mxGeometry relative="1" as="geometry"/>
                </mxCell>
                <mxCell id="qS-nnotVbw7SOMKdoAuq-98" value="&lt;span style=&quot;&quot;&gt;SSE 'article' esiste in tutti e due i dizionari&lt;/span&gt;" style="shape=hexagon;perimeter=hexagonPerimeter2;whiteSpace=wrap;html=1;fixedSize=1;spacingLeft=7;spacingRight=7;" parent="q9FI1TOaqOAg2Ot-_LC3-7" vertex="1">
                    <mxGeometry x="1310" y="670" width="140" height="80" as="geometry"/>
                </mxCell>
                <mxCell id="qS-nnotVbw7SOMKdoAuq-52" style="edgeStyle=orthogonalEdgeStyle;rounded=1;orthogonalLoop=1;jettySize=auto;html=1;exitX=0.5;exitY=1;exitDx=0;exitDy=0;entryX=0.5;entryY=0;entryDx=0;entryDy=0;startArrow=none;startFill=0;endArrow=classic;endFill=1;" parent="1" source="qS-nnotVbw7SOMKdoAuq-124" target="qS-nnotVbw7SOMKdoAuq-48" edge="1">
                    <mxGeometry relative="1" as="geometry"/>
                </mxCell>
                <mxCell id="qS-nnotVbw7SOMKdoAuq-9" value="Wikidata.json" style="swimlane;fillColor=#fff2cc;strokeColor=#d6b656;" parent="1" vertex="1">
                    <mxGeometry x="320" y="-360" width="360" height="160" as="geometry"/>
                </mxCell>
                <mxCell id="qS-nnotVbw7SOMKdoAuq-11" value="&quot;wikidata_name&quot;: string" style="swimlane;fillColor=#e1d5e7;strokeColor=#9673a6;" parent="qS-nnotVbw7SOMKdoAuq-9" vertex="1">
                    <mxGeometry x="10" y="30" width="340" height="40" as="geometry"/>
                </mxCell>
                <mxCell id="qS-nnotVbw7SOMKdoAuq-12" value="&quot;wikidata_details&quot;: { obj }" style="swimlane;fillColor=#e1d5e7;strokeColor=#9673a6;" parent="qS-nnotVbw7SOMKdoAuq-9" vertex="1">
                    <mxGeometry x="10" y="80" width="340" height="70" as="geometry"/>
                </mxCell>
                <mxCell id="qS-nnotVbw7SOMKdoAuq-15" value="'key': [ { &quot;data&quot;: 'value' } ]" style="rounded=0;whiteSpace=wrap;html=1;" parent="qS-nnotVbw7SOMKdoAuq-12" vertex="1">
                    <mxGeometry x="10" y="30" width="320" height="30" as="geometry"/>
                </mxCell>
                <mxCell id="qS-nnotVbw7SOMKdoAuq-32" style="edgeStyle=orthogonalEdgeStyle;rounded=1;orthogonalLoop=1;jettySize=auto;html=1;exitX=0.5;exitY=1;exitDx=0;exitDy=0;entryX=0.5;entryY=0;entryDx=0;entryDy=0;" parent="1" source="qS-nnotVbw7SOMKdoAuq-16" target="qS-nnotVbw7SOMKdoAuq-26" edge="1">
                    <mxGeometry relative="1" as="geometry"/>
                </mxCell>
                <mxCell id="qS-nnotVbw7SOMKdoAuq-18" value="" style="endArrow=classic;html=1;entryX=0.75;entryY=0;entryDx=0;entryDy=0;rounded=1;exitX=0.5;exitY=1;exitDx=0;exitDy=0;startArrow=none;" parent="1" source="qS-nnotVbw7SOMKdoAuq-137" target="qS-nnotVbw7SOMKdoAuq-16" edge="1">
                    <mxGeometry relative="1" as="geometry">
                        <mxPoint x="240" y="180" as="sourcePoint"/>
                        <mxPoint x="550" y="280" as="targetPoint"/>
                    </mxGeometry>
                </mxCell>
                <mxCell id="qS-nnotVbw7SOMKdoAuq-33" style="edgeStyle=orthogonalEdgeStyle;rounded=1;orthogonalLoop=1;jettySize=auto;html=1;exitX=0.5;exitY=1;exitDx=0;exitDy=0;entryX=0.5;entryY=0;entryDx=0;entryDy=0;" parent="1" source="qS-nnotVbw7SOMKdoAuq-21" target="qS-nnotVbw7SOMKdoAuq-29" edge="1">
                    <mxGeometry relative="1" as="geometry"/>
                </mxCell>
                <mxCell id="qS-nnotVbw7SOMKdoAuq-23" value="" style="endArrow=classic;html=1;entryX=0.75;entryY=0;entryDx=0;entryDy=0;rounded=1;exitX=0.5;exitY=1;exitDx=0;exitDy=0;startArrow=none;" parent="1" source="qS-nnotVbw7SOMKdoAuq-134" target="qS-nnotVbw7SOMKdoAuq-21" edge="1">
                    <mxGeometry relative="1" as="geometry">
                        <mxPoint x="820" y="200" as="sourcePoint"/>
                        <mxPoint x="290" y="370" as="targetPoint"/>
                    </mxGeometry>
                </mxCell>
                <mxCell id="qS-nnotVbw7SOMKdoAuq-91" style="edgeStyle=orthogonalEdgeStyle;rounded=1;orthogonalLoop=1;jettySize=auto;html=1;exitX=0.5;exitY=1;exitDx=0;exitDy=0;entryX=0;entryY=0.75;entryDx=0;entryDy=0;startArrow=none;startFill=0;endArrow=classic;endFill=1;" parent="1" source="qS-nnotVbw7SOMKdoAuq-26" target="qS-nnotVbw7SOMKdoAuq-89" edge="1">
                    <mxGeometry relative="1" as="geometry"/>
                </mxCell>
                <mxCell id="qS-nnotVbw7SOMKdoAuq-26" value="&quot;type_vocab&quot;: vocab" style="swimlane;fillColor=#d5e8d4;strokeColor=#82b366;" parent="1" vertex="1">
                    <mxGeometry x="40" y="480" width="160" height="110" as="geometry"/>
                </mxCell>
                <mxCell id="qS-nnotVbw7SOMKdoAuq-27" value="word2ID" style="rounded=0;whiteSpace=wrap;html=1;" parent="qS-nnotVbw7SOMKdoAuq-26" vertex="1">
                    <mxGeometry x="10" y="30" width="140" height="30" as="geometry"/>
                </mxCell>
                <mxCell id="qS-nnotVbw7SOMKdoAuq-28" value="size" style="rounded=0;whiteSpace=wrap;html=1;" parent="qS-nnotVbw7SOMKdoAuq-26" vertex="1">
                    <mxGeometry x="10" y="70" width="140" height="30" as="geometry"/>
                </mxCell>
                <mxCell id="qS-nnotVbw7SOMKdoAuq-90" style="edgeStyle=orthogonalEdgeStyle;rounded=1;orthogonalLoop=1;jettySize=auto;html=1;exitX=0.5;exitY=1;exitDx=0;exitDy=0;entryX=0;entryY=0.25;entryDx=0;entryDy=0;startArrow=none;startFill=0;endArrow=classic;endFill=1;" parent="1" source="qS-nnotVbw7SOMKdoAuq-29" target="qS-nnotVbw7SOMKdoAuq-89" edge="1">
                    <mxGeometry relative="1" as="geometry"/>
                </mxCell>
                <mxCell id="qS-nnotVbw7SOMKdoAuq-29" value="&quot;value_vocab&quot;: vocab" style="swimlane;fillColor=#d5e8d4;strokeColor=#82b366;" parent="1" vertex="1">
                    <mxGeometry x="320" y="480" width="160" height="110" as="geometry"/>
                </mxCell>
                <mxCell id="qS-nnotVbw7SOMKdoAuq-30" value="word2ID" style="rounded=0;whiteSpace=wrap;html=1;" parent="qS-nnotVbw7SOMKdoAuq-29" vertex="1">
                    <mxGeometry x="10" y="30" width="140" height="30" as="geometry"/>
                </mxCell>
                <mxCell id="qS-nnotVbw7SOMKdoAuq-31" value="size" style="rounded=0;whiteSpace=wrap;html=1;" parent="qS-nnotVbw7SOMKdoAuq-29" vertex="1">
                    <mxGeometry x="10" y="70" width="140" height="30" as="geometry"/>
                </mxCell>
                <mxCell id="qS-nnotVbw7SOMKdoAuq-57" style="edgeStyle=orthogonalEdgeStyle;rounded=1;orthogonalLoop=1;jettySize=auto;html=1;exitX=0.5;exitY=1;exitDx=0;exitDy=0;entryX=0.5;entryY=0;entryDx=0;entryDy=0;startArrow=none;startFill=0;endArrow=classic;endFill=1;" parent="1" source="qS-nnotVbw7SOMKdoAuq-129" target="qS-nnotVbw7SOMKdoAuq-53" edge="1">
                    <mxGeometry relative="1" as="geometry"/>
                </mxCell>
                <mxCell id="qS-nnotVbw7SOMKdoAuq-43" value="train-500k.json" style="swimlane;fillColor=#fff2cc;strokeColor=#d6b656;" parent="1" vertex="1">
                    <mxGeometry x="1000" y="-360" width="360" height="130" as="geometry"/>
                </mxCell>
                <mxCell id="qS-nnotVbw7SOMKdoAuq-44" value="&quot;doc_title&quot;: string" style="swimlane;fillColor=#e1d5e7;strokeColor=#9673a6;" parent="qS-nnotVbw7SOMKdoAuq-43" vertex="1">
                    <mxGeometry x="10" y="30" width="340" height="40" as="geometry"/>
                </mxCell>
                <mxCell id="qS-nnotVbw7SOMKdoAuq-45" value="&quot;text&quot;: string" style="swimlane;fillColor=#e1d5e7;strokeColor=#9673a6;" parent="qS-nnotVbw7SOMKdoAuq-43" vertex="1">
                    <mxGeometry x="10" y="80" width="340" height="40" as="geometry"/>
                </mxCell>
                <mxCell id="qS-nnotVbw7SOMKdoAuq-47" style="edgeStyle=orthogonalEdgeStyle;rounded=1;orthogonalLoop=1;jettySize=auto;html=1;exitX=1;exitY=0.5;exitDx=0;exitDy=0;entryX=0;entryY=0.5;entryDx=0;entryDy=0;startArrow=diamondThin;startFill=1;endArrow=diamondThin;endFill=1;" parent="1" source="qS-nnotVbw7SOMKdoAuq-11" target="qS-nnotVbw7SOMKdoAuq-44" edge="1">
                    <mxGeometry relative="1" as="geometry"/>
                </mxCell>
                <mxCell id="qS-nnotVbw7SOMKdoAuq-83" style="edgeStyle=orthogonalEdgeStyle;rounded=1;orthogonalLoop=1;jettySize=auto;html=1;exitX=1;exitY=0.5;exitDx=0;exitDy=0;startArrow=none;startFill=0;endArrow=classic;endFill=1;entryX=0.5;entryY=0;entryDx=0;entryDy=0;" parent="1" source="qS-nnotVbw7SOMKdoAuq-48" target="qS-nnotVbw7SOMKdoAuq-89" edge="1">
                    <mxGeometry relative="1" as="geometry">
                        <mxPoint x="850" y="280" as="targetPoint"/>
                    </mxGeometry>
                </mxCell>
                <mxCell id="qS-nnotVbw7SOMKdoAuq-48" value="wikidata_clean.json" style="swimlane;fillColor=#fff2cc;strokeColor=#d6b656;" parent="1" vertex="1">
                    <mxGeometry x="320" y="-40" width="360" height="160" as="geometry"/>
                </mxCell>
                <mxCell id="qS-nnotVbw7SOMKdoAuq-49" value="&quot;article&quot;: string" style="swimlane;fillColor=#e1d5e7;strokeColor=#9673a6;" parent="qS-nnotVbw7SOMKdoAuq-48" vertex="1">
                    <mxGeometry x="10" y="30" width="340" height="40" as="geometry"/>
                </mxCell>
                <mxCell id="qS-nnotVbw7SOMKdoAuq-50" value="&quot;data&quot;: { obj }" style="swimlane;fillColor=#e1d5e7;strokeColor=#9673a6;" parent="qS-nnotVbw7SOMKdoAuq-48" vertex="1">
                    <mxGeometry x="10" y="80" width="340" height="70" as="geometry"/>
                </mxCell>
                <mxCell id="qS-nnotVbw7SOMKdoAuq-51" value="'key': [ 'values'... ]" style="rounded=0;whiteSpace=wrap;html=1;" parent="qS-nnotVbw7SOMKdoAuq-50" vertex="1">
                    <mxGeometry x="10" y="30" width="320" height="30" as="geometry"/>
                </mxCell>
                <mxCell id="qS-nnotVbw7SOMKdoAuq-88" style="edgeStyle=orthogonalEdgeStyle;rounded=1;orthogonalLoop=1;jettySize=auto;html=1;exitX=1;exitY=0.5;exitDx=0;exitDy=0;startArrow=none;startFill=0;endArrow=classic;endFill=1;entryX=0.5;entryY=0;entryDx=0;entryDy=0;" parent="1" source="qS-nnotVbw7SOMKdoAuq-53" target="qS-nnotVbw7SOMKdoAuq-93" edge="1">
                    <mxGeometry relative="1" as="geometry">
                        <mxPoint x="1590" y="410" as="targetPoint"/>
                    </mxGeometry>
                </mxCell>
                <mxCell id="qS-nnotVbw7SOMKdoAuq-53" value="train-500k.json" style="swimlane;fillColor=#fff2cc;strokeColor=#d6b656;" parent="1" vertex="1">
                    <mxGeometry x="1000" y="-40" width="360" height="130" as="geometry"/>
                </mxCell>
                <mxCell id="qS-nnotVbw7SOMKdoAuq-54" value="&quot;article&quot;: string" style="swimlane;fillColor=#e1d5e7;strokeColor=#9673a6;" parent="qS-nnotVbw7SOMKdoAuq-53" vertex="1">
                    <mxGeometry x="10" y="30" width="340" height="40" as="geometry"/>
                </mxCell>
                <mxCell id="qS-nnotVbw7SOMKdoAuq-55" value="&quot;data&quot;: array[string]" style="swimlane;fillColor=#e1d5e7;strokeColor=#9673a6;" parent="qS-nnotVbw7SOMKdoAuq-53" vertex="1">
                    <mxGeometry x="10" y="80" width="340" height="40" as="geometry"/>
                </mxCell>
                <mxCell id="qS-nnotVbw7SOMKdoAuq-59" value="" style="endArrow=async;html=1;rounded=1;exitX=0.5;exitY=1;exitDx=0;exitDy=0;entryX=0;entryY=0.5;entryDx=0;entryDy=0;endFill=1;startArrow=none;" parent="1" source="qS-nnotVbw7SOMKdoAuq-148" target="qS-nnotVbw7SOMKdoAuq-55" edge="1">
                    <mxGeometry relative="1" as="geometry">
                        <mxPoint x="900" y="-130" as="sourcePoint"/>
                        <mxPoint x="1000" y="-130" as="targetPoint"/>
                        <Array as="points">
                            <mxPoint x="940" y="60"/>
                        </Array>
                    </mxGeometry>
                </mxCell>
                <mxCell id="qS-nnotVbw7SOMKdoAuq-70" style="edgeStyle=orthogonalEdgeStyle;rounded=1;orthogonalLoop=1;jettySize=auto;html=1;exitX=0.5;exitY=1;exitDx=0;exitDy=0;entryX=0.5;entryY=0;entryDx=0;entryDy=0;startArrow=none;startFill=0;endArrow=classic;endFill=1;" parent="1" source="qS-nnotVbw7SOMKdoAuq-64" target="qS-nnotVbw7SOMKdoAuq-67" edge="1">
                    <mxGeometry relative="1" as="geometry"/>
                </mxCell>
                <mxCell id="qS-nnotVbw7SOMKdoAuq-95" style="edgeStyle=orthogonalEdgeStyle;rounded=1;orthogonalLoop=1;jettySize=auto;html=1;exitX=1;exitY=0.5;exitDx=0;exitDy=0;entryX=0;entryY=0.5;entryDx=0;entryDy=0;startArrow=none;startFill=0;endArrow=classic;endFill=1;" parent="1" source="qS-nnotVbw7SOMKdoAuq-67" target="qS-nnotVbw7SOMKdoAuq-93" edge="1">
                    <mxGeometry relative="1" as="geometry"/>
                </mxCell>
                <mxCell id="qS-nnotVbw7SOMKdoAuq-67" value="&quot;token_vocab&quot;: vocab" style="swimlane;fillColor=#d5e8d4;strokeColor=#82b366;" parent="1" vertex="1">
                    <mxGeometry x="1100" y="480" width="160" height="110" as="geometry"/>
                </mxCell>
                <mxCell id="qS-nnotVbw7SOMKdoAuq-68" value="word2ID" style="rounded=0;whiteSpace=wrap;html=1;" parent="qS-nnotVbw7SOMKdoAuq-67" vertex="1">
                    <mxGeometry x="10" y="30" width="140" height="30" as="geometry"/>
                </mxCell>
                <mxCell id="qS-nnotVbw7SOMKdoAuq-69" value="size" style="rounded=0;whiteSpace=wrap;html=1;" parent="qS-nnotVbw7SOMKdoAuq-67" vertex="1">
                    <mxGeometry x="10" y="70" width="140" height="30" as="geometry"/>
                </mxCell>
                <mxCell id="qS-nnotVbw7SOMKdoAuq-71" value="" style="endArrow=classic;html=1;entryX=0.5;entryY=0;entryDx=0;entryDy=0;edgeStyle=orthogonalEdgeStyle;rounded=1;exitX=0.5;exitY=1;exitDx=0;exitDy=0;startArrow=none;" parent="1" source="qS-nnotVbw7SOMKdoAuq-131" target="qS-nnotVbw7SOMKdoAuq-64" edge="1">
                    <mxGeometry relative="1" as="geometry">
                        <mxPoint x="582.5" y="109.99999999999977" as="sourcePoint"/>
                        <mxPoint x="740" y="369.9999999999998" as="targetPoint"/>
                    </mxGeometry>
                </mxCell>
                <mxCell id="qS-nnotVbw7SOMKdoAuq-99" style="edgeStyle=orthogonalEdgeStyle;rounded=1;orthogonalLoop=1;jettySize=auto;html=1;exitX=0.5;exitY=1;exitDx=0;exitDy=0;entryX=0;entryY=0.5;entryDx=0;entryDy=0;startArrow=none;startFill=0;endArrow=classic;endFill=1;" parent="1" source="qS-nnotVbw7SOMKdoAuq-75" target="qS-nnotVbw7SOMKdoAuq-98" edge="1">
                    <mxGeometry relative="1" as="geometry"/>
                </mxCell>
                <mxCell id="qS-nnotVbw7SOMKdoAuq-75" value="&quot;articles_tables&quot;: { obj }" style="swimlane;fillColor=#d5e8d4;strokeColor=#82b366;" parent="1" vertex="1">
                    <mxGeometry x="610" y="750" width="500" height="220" as="geometry"/>
                </mxCell>
                <mxCell id="qS-nnotVbw7SOMKdoAuq-79" value="KEY: string ('article')" style="swimlane;fillColor=#e1d5e7;strokeColor=#9673a6;" parent="qS-nnotVbw7SOMKdoAuq-75" vertex="1">
                    <mxGeometry x="10" y="30" width="480" height="40" as="geometry"/>
                </mxCell>
                <mxCell id="qS-nnotVbw7SOMKdoAuq-80" value="VALUE: tuple(array), array len = PHRASE_SIZE " style="swimlane;fillColor=#e1d5e7;strokeColor=#9673a6;" parent="qS-nnotVbw7SOMKdoAuq-75" vertex="1">
                    <mxGeometry x="10" y="80" width="480" height="130" as="geometry"/>
                </mxCell>
                <mxCell id="qS-nnotVbw7SOMKdoAuq-81" value="[0] (type_input) = PHRASE_SIZE valori di tipo &quot;type&quot;&lt;br&gt;[1] (value_input) = PHRASE_SIZE valori di tipo &quot;value&quot;&lt;br&gt;[2] (position_input) = valori da 0 a PHRASE_SIZE-1" style="rounded=0;whiteSpace=wrap;html=1;align=left;spacingLeft=5;" parent="qS-nnotVbw7SOMKdoAuq-80" vertex="1">
                    <mxGeometry x="10" y="30" width="460" height="85" as="geometry"/>
                </mxCell>
                <mxCell id="qS-nnotVbw7SOMKdoAuq-100" style="edgeStyle=orthogonalEdgeStyle;rounded=1;orthogonalLoop=1;jettySize=auto;html=1;exitX=0.5;exitY=1;exitDx=0;exitDy=0;entryX=1;entryY=0.5;entryDx=0;entryDy=0;startArrow=none;startFill=0;endArrow=classic;endFill=1;" parent="1" source="qS-nnotVbw7SOMKdoAuq-84" target="qS-nnotVbw7SOMKdoAuq-98" edge="1">
                    <mxGeometry relative="1" as="geometry"/>
                </mxCell>
                <mxCell id="qS-nnotVbw7SOMKdoAuq-84" value="&quot;articles_text&quot;: { obj }" style="swimlane;fillColor=#d5e8d4;strokeColor=#82b366;" parent="1" vertex="1">
                    <mxGeometry x="1320" y="750" width="500" height="130" as="geometry"/>
                </mxCell>
                <mxCell id="qS-nnotVbw7SOMKdoAuq-85" value="KEY: string ('article')" style="swimlane;fillColor=#e1d5e7;strokeColor=#9673a6;" parent="qS-nnotVbw7SOMKdoAuq-84" vertex="1">
                    <mxGeometry x="10" y="30" width="480" height="40" as="geometry"/>
                </mxCell>
                <mxCell id="qS-nnotVbw7SOMKdoAuq-86" value="VALUE: array[string], len = ?" style="swimlane;fillColor=#e1d5e7;strokeColor=#9673a6;" parent="qS-nnotVbw7SOMKdoAuq-84" vertex="1">
                    <mxGeometry x="10" y="80" width="480" height="40" as="geometry"/>
                </mxCell>
                <mxCell id="qS-nnotVbw7SOMKdoAuq-92" style="edgeStyle=orthogonalEdgeStyle;rounded=1;orthogonalLoop=1;jettySize=auto;html=1;exitX=0.5;exitY=1;exitDx=0;exitDy=0;entryX=0.5;entryY=0;entryDx=0;entryDy=0;startArrow=none;startFill=0;endArrow=classic;endFill=1;" parent="1" source="qS-nnotVbw7SOMKdoAuq-89" target="qS-nnotVbw7SOMKdoAuq-75" edge="1">
                    <mxGeometry relative="1" as="geometry"/>
                </mxCell>
                <mxCell id="qS-nnotVbw7SOMKdoAuq-94" style="edgeStyle=orthogonalEdgeStyle;rounded=1;orthogonalLoop=1;jettySize=auto;html=1;exitX=0.5;exitY=1;exitDx=0;exitDy=0;entryX=0.5;entryY=0;entryDx=0;entryDy=0;startArrow=none;startFill=0;endArrow=classic;endFill=1;" parent="1" source="qS-nnotVbw7SOMKdoAuq-93" target="qS-nnotVbw7SOMKdoAuq-84" edge="1">
                    <mxGeometry relative="1" as="geometry"/>
                </mxCell>
                <mxCell id="qS-nnotVbw7SOMKdoAuq-93" value="valori di 'tokenized_text' sostituiti con gli ID del vocabolario" style="rounded=0;whiteSpace=wrap;html=1;" parent="1" vertex="1">
                    <mxGeometry x="1470" y="505" width="200" height="60" as="geometry"/>
                </mxCell>
                <mxCell id="qS-nnotVbw7SOMKdoAuq-104" value="Infobox.json" style="swimlane;fillColor=#fff2cc;strokeColor=#d6b656;" parent="1" vertex="1">
                    <mxGeometry x="-160" y="-360" width="360" height="160" as="geometry"/>
                </mxCell>
                <mxCell id="qS-nnotVbw7SOMKdoAuq-105" value="&quot;title&quot;: string" style="swimlane;fillColor=#e1d5e7;strokeColor=#9673a6;" parent="qS-nnotVbw7SOMKdoAuq-104" vertex="1">
                    <mxGeometry x="10" y="30" width="340" height="40" as="geometry"/>
                </mxCell>
                <mxCell id="qS-nnotVbw7SOMKdoAuq-106" value="&quot;infobox&quot;: { obj }" style="swimlane;fillColor=#e1d5e7;strokeColor=#9673a6;" parent="qS-nnotVbw7SOMKdoAuq-104" vertex="1">
                    <mxGeometry x="10" y="80" width="340" height="70" as="geometry"/>
                </mxCell>
                <mxCell id="qS-nnotVbw7SOMKdoAuq-107" value="'key': 'value'" style="rounded=0;whiteSpace=wrap;html=1;" parent="qS-nnotVbw7SOMKdoAuq-106" vertex="1">
                    <mxGeometry x="10" y="30" width="320" height="30" as="geometry"/>
                </mxCell>
                <mxCell id="qS-nnotVbw7SOMKdoAuq-108" style="edgeStyle=orthogonalEdgeStyle;rounded=1;orthogonalLoop=1;jettySize=auto;html=1;exitX=1;exitY=0.5;exitDx=0;exitDy=0;entryX=0;entryY=0.5;entryDx=0;entryDy=0;startArrow=diamondThin;startFill=1;endArrow=diamondThin;endFill=1;" parent="1" source="qS-nnotVbw7SOMKdoAuq-105" target="qS-nnotVbw7SOMKdoAuq-11" edge="1">
                    <mxGeometry relative="1" as="geometry"/>
                </mxCell>
                <mxCell id="qS-nnotVbw7SOMKdoAuq-113" value="infobox_clean.json" style="swimlane;fillColor=#fff2cc;strokeColor=#d6b656;" parent="1" vertex="1">
                    <mxGeometry x="-160" y="-40" width="360" height="160" as="geometry"/>
                </mxCell>
                <mxCell id="qS-nnotVbw7SOMKdoAuq-114" value="&quot;article&quot;: string" style="swimlane;fillColor=#e1d5e7;strokeColor=#9673a6;" parent="qS-nnotVbw7SOMKdoAuq-113" vertex="1">
                    <mxGeometry x="10" y="30" width="340" height="40" as="geometry"/>
                </mxCell>
                <mxCell id="qS-nnotVbw7SOMKdoAuq-115" value="&quot;data&quot;: { obj }" style="swimlane;fillColor=#e1d5e7;strokeColor=#9673a6;" parent="qS-nnotVbw7SOMKdoAuq-113" vertex="1">
                    <mxGeometry x="10" y="80" width="340" height="70" as="geometry"/>
                </mxCell>
                <mxCell id="qS-nnotVbw7SOMKdoAuq-116" value="'key': 'value'" style="rounded=0;whiteSpace=wrap;html=1;" parent="qS-nnotVbw7SOMKdoAuq-115" vertex="1">
                    <mxGeometry x="10" y="30" width="320" height="30" as="geometry"/>
                </mxCell>
                <mxCell id="qS-nnotVbw7SOMKdoAuq-117" style="edgeStyle=orthogonalEdgeStyle;rounded=1;orthogonalLoop=1;jettySize=auto;html=1;exitX=0.5;exitY=1;exitDx=0;exitDy=0;entryX=0.5;entryY=0;entryDx=0;entryDy=0;startArrow=none;startFill=0;endArrow=classic;endFill=1;" parent="1" source="qS-nnotVbw7SOMKdoAuq-123" target="qS-nnotVbw7SOMKdoAuq-113" edge="1">
                    <mxGeometry relative="1" as="geometry">
                        <mxPoint x="50" y="-120" as="sourcePoint"/>
                        <mxPoint x="50" y="-40" as="targetPoint"/>
                    </mxGeometry>
                </mxCell>
                <mxCell id="qS-nnotVbw7SOMKdoAuq-119" value="" style="endArrow=classic;html=1;entryX=0.25;entryY=0;entryDx=0;entryDy=0;rounded=1;exitX=0.5;exitY=1;exitDx=0;exitDy=0;startArrow=none;" parent="1" source="qS-nnotVbw7SOMKdoAuq-143" target="qS-nnotVbw7SOMKdoAuq-16" edge="1">
                    <mxGeometry relative="1" as="geometry">
                        <mxPoint x="427.5" y="110" as="sourcePoint"/>
                        <mxPoint x="410" y="370" as="targetPoint"/>
                    </mxGeometry>
                </mxCell>
                <mxCell id="qS-nnotVbw7SOMKdoAuq-121" value="" style="endArrow=classic;html=1;entryX=0.25;entryY=0;entryDx=0;entryDy=0;rounded=1;exitX=0.5;exitY=1;exitDx=0;exitDy=0;startArrow=none;" parent="1" source="qS-nnotVbw7SOMKdoAuq-140" target="qS-nnotVbw7SOMKdoAuq-21" edge="1">
                    <mxGeometry relative="1" as="geometry">
                        <mxPoint x="-52.5" y="110" as="sourcePoint"/>
                        <mxPoint x="90" y="370" as="targetPoint"/>
                    </mxGeometry>
                </mxCell>
                <mxCell id="qS-nnotVbw7SOMKdoAuq-123" value="[all text].replace(&quot;@@ &quot;, &quot;&quot;)" style="rounded=0;whiteSpace=wrap;html=1;" parent="1" vertex="1">
                    <mxGeometry x="-60" y="-140" width="160" height="40" as="geometry"/>
                </mxCell>
                <mxCell id="qS-nnotVbw7SOMKdoAuq-127" value="" style="edgeStyle=orthogonalEdgeStyle;rounded=1;orthogonalLoop=1;jettySize=auto;html=1;exitX=0.5;exitY=1;exitDx=0;exitDy=0;entryX=0.5;entryY=0;entryDx=0;entryDy=0;startArrow=none;startFill=0;endArrow=none;endFill=1;" parent="1" source="qS-nnotVbw7SOMKdoAuq-104" target="qS-nnotVbw7SOMKdoAuq-123" edge="1">
                    <mxGeometry relative="1" as="geometry">
                        <mxPoint x="20" y="-200" as="sourcePoint"/>
                        <mxPoint x="20" y="-40" as="targetPoint"/>
                    </mxGeometry>
                </mxCell>
                <mxCell id="qS-nnotVbw7SOMKdoAuq-124" value="[all text].replace(&quot;@@ &quot;, &quot;&quot;)" style="rounded=0;whiteSpace=wrap;html=1;" parent="1" vertex="1">
                    <mxGeometry x="420" y="-140" width="160" height="40" as="geometry"/>
                </mxCell>
                <mxCell id="qS-nnotVbw7SOMKdoAuq-128" value="" style="edgeStyle=orthogonalEdgeStyle;rounded=1;orthogonalLoop=1;jettySize=auto;html=1;exitX=0.5;exitY=1;exitDx=0;exitDy=0;entryX=0.5;entryY=0;entryDx=0;entryDy=0;startArrow=none;startFill=0;endArrow=none;endFill=1;" parent="1" source="qS-nnotVbw7SOMKdoAuq-9" target="qS-nnotVbw7SOMKdoAuq-124" edge="1">
                    <mxGeometry relative="1" as="geometry">
                        <mxPoint x="500" y="-200" as="sourcePoint"/>
                        <mxPoint x="500" y="-40" as="targetPoint"/>
                    </mxGeometry>
                </mxCell>
                <mxCell id="qS-nnotVbw7SOMKdoAuq-130" value="" style="edgeStyle=orthogonalEdgeStyle;rounded=1;orthogonalLoop=1;jettySize=auto;html=1;exitX=0.5;exitY=1;exitDx=0;exitDy=0;entryX=0.5;entryY=0;entryDx=0;entryDy=0;startArrow=none;startFill=0;endArrow=none;endFill=1;" parent="1" source="qS-nnotVbw7SOMKdoAuq-43" target="qS-nnotVbw7SOMKdoAuq-129" edge="1">
                    <mxGeometry relative="1" as="geometry">
                        <mxPoint x="1180" y="-230" as="sourcePoint"/>
                        <mxPoint x="1180" y="-40.000000000000114" as="targetPoint"/>
                    </mxGeometry>
                </mxCell>
                <mxCell id="qS-nnotVbw7SOMKdoAuq-131" value="&lt;span style=&quot;font-size: 11px; text-align: left;&quot;&gt;foreach 'word' in &quot;tokenized_text&quot;&lt;/span&gt;" style="rounded=0;whiteSpace=wrap;html=1;" parent="1" vertex="1">
                    <mxGeometry x="1120" y="200" width="120" height="40" as="geometry"/>
                </mxCell>
                <mxCell id="qS-nnotVbw7SOMKdoAuq-132" value="" style="endArrow=none;html=1;entryX=0.5;entryY=0;entryDx=0;entryDy=0;edgeStyle=orthogonalEdgeStyle;rounded=1;exitX=0.5;exitY=1;exitDx=0;exitDy=0;" parent="1" source="qS-nnotVbw7SOMKdoAuq-55" target="qS-nnotVbw7SOMKdoAuq-131" edge="1">
                    <mxGeometry relative="1" as="geometry">
                        <mxPoint x="1180" y="80" as="sourcePoint"/>
                        <mxPoint x="1180" y="360" as="targetPoint"/>
                    </mxGeometry>
                </mxCell>
                <mxCell id="qS-nnotVbw7SOMKdoAuq-134" value="&lt;span style=&quot;font-size: 11px; text-align: left;&quot;&gt;foreach 'key'&lt;/span&gt;&lt;br style=&quot;font-size: 11px; text-align: left;&quot;&gt;&lt;div style=&quot;font-size: 11px; text-align: left;&quot;&gt;&amp;nbsp; &amp;nbsp; foreach 'value'&amp;nbsp;&lt;/div&gt;" style="rounded=0;whiteSpace=wrap;html=1;" parent="1" vertex="1">
                    <mxGeometry x="520" y="200" width="120" height="40" as="geometry"/>
                </mxCell>
                <mxCell id="qS-nnotVbw7SOMKdoAuq-135" value="" style="endArrow=none;html=1;entryX=0.5;entryY=0;entryDx=0;entryDy=0;rounded=1;exitX=0.75;exitY=1;exitDx=0;exitDy=0;" parent="1" source="qS-nnotVbw7SOMKdoAuq-51" target="qS-nnotVbw7SOMKdoAuq-134" edge="1">
                    <mxGeometry relative="1" as="geometry">
                        <mxPoint x="572.5" y="100" as="sourcePoint"/>
                        <mxPoint x="440" y="360" as="targetPoint"/>
                    </mxGeometry>
                </mxCell>
                <mxCell id="qS-nnotVbw7SOMKdoAuq-137" value="&lt;span style=&quot;font-size: 11px;&quot;&gt;foreach 'key'&lt;/span&gt;" style="rounded=0;whiteSpace=wrap;html=1;" parent="1" vertex="1">
                    <mxGeometry x="360" y="200" width="120" height="40" as="geometry"/>
                </mxCell>
                <mxCell id="qS-nnotVbw7SOMKdoAuq-138" value="" style="endArrow=none;html=1;entryX=0.5;entryY=0;entryDx=0;entryDy=0;rounded=1;exitX=0.25;exitY=1;exitDx=0;exitDy=0;" parent="1" source="qS-nnotVbw7SOMKdoAuq-51" target="qS-nnotVbw7SOMKdoAuq-137" edge="1">
                    <mxGeometry relative="1" as="geometry">
                        <mxPoint x="417.5" y="100" as="sourcePoint"/>
                        <mxPoint x="160" y="360" as="targetPoint"/>
                    </mxGeometry>
                </mxCell>
                <mxCell id="qS-nnotVbw7SOMKdoAuq-140" value="&lt;span style=&quot;font-size: 11px;&quot;&gt;foreach 'value'&lt;/span&gt;" style="rounded=0;whiteSpace=wrap;html=1;" parent="1" vertex="1">
                    <mxGeometry x="40" y="200" width="120" height="40" as="geometry"/>
                </mxCell>
                <mxCell id="qS-nnotVbw7SOMKdoAuq-141" value="" style="endArrow=none;html=1;entryX=0.5;entryY=0;entryDx=0;entryDy=0;rounded=1;exitX=0.75;exitY=1;exitDx=0;exitDy=0;" parent="1" source="qS-nnotVbw7SOMKdoAuq-116" target="qS-nnotVbw7SOMKdoAuq-140" edge="1">
                    <mxGeometry relative="1" as="geometry">
                        <mxPoint x="92.5" y="100" as="sourcePoint"/>
                        <mxPoint x="360" y="360" as="targetPoint"/>
                    </mxGeometry>
                </mxCell>
                <mxCell id="qS-nnotVbw7SOMKdoAuq-143" value="&lt;span style=&quot;font-size: 11px;&quot;&gt;foreach 'key'&lt;/span&gt;" style="rounded=0;whiteSpace=wrap;html=1;" parent="1" vertex="1">
                    <mxGeometry x="-120" y="200" width="120" height="40" as="geometry"/>
                </mxCell>
                <mxCell id="qS-nnotVbw7SOMKdoAuq-144" value="" style="endArrow=none;html=1;entryX=0.5;entryY=0;entryDx=0;entryDy=0;rounded=1;exitX=0.25;exitY=1;exitDx=0;exitDy=0;" parent="1" source="qS-nnotVbw7SOMKdoAuq-116" target="qS-nnotVbw7SOMKdoAuq-143" edge="1">
                    <mxGeometry relative="1" as="geometry">
                        <mxPoint x="-62.5" y="100" as="sourcePoint"/>
                        <mxPoint x="80" y="360" as="targetPoint"/>
                    </mxGeometry>
                </mxCell>
                <mxCell id="qS-nnotVbw7SOMKdoAuq-149" value="" style="endArrow=none;html=1;rounded=1;exitX=0;exitY=0.5;exitDx=0;exitDy=0;entryX=0.5;entryY=0;entryDx=0;entryDy=0;endFill=1;" parent="1" source="qS-nnotVbw7SOMKdoAuq-45" target="qS-nnotVbw7SOMKdoAuq-148" edge="1">
                    <mxGeometry relative="1" as="geometry">
                        <mxPoint x="1010" y="-260" as="sourcePoint"/>
                        <mxPoint x="1010" y="60" as="targetPoint"/>
                        <Array as="points">
                            <mxPoint x="940" y="-260"/>
                        </Array>
                    </mxGeometry>
                </mxCell>
                <mxCell id="qS-nnotVbw7SOMKdoAuq-153" style="edgeStyle=none;rounded=1;orthogonalLoop=1;jettySize=auto;html=1;exitX=0.5;exitY=1;exitDx=0;exitDy=0;entryX=0.5;entryY=0;entryDx=0;entryDy=0;startArrow=none;startFill=0;endArrow=open;endFill=0;" parent="1" source="qS-nnotVbw7SOMKdoAuq-152" target="qS-nnotVbw7SOMKdoAuq-98" edge="1">
                    <mxGeometry relative="1" as="geometry"/>
                </mxCell>
                <mxCell id="qS-nnotVbw7SOMKdoAuq-152" value="foreach 'article' in &quot;articles_table&quot;" style="rounded=0;whiteSpace=wrap;html=1;align=center;spacingLeft=0;" parent="1" vertex="1">
                    <mxGeometry x="1080" y="1000" width="200" height="40" as="geometry"/>
                </mxCell>
            </root>
        </mxGraphModel>
    </diagram>
    <diagram name="training-data" id="q8EaWNK7Z6vph245YhDz">
        <mxGraphModel dx="1093" dy="1075" grid="1" gridSize="10" guides="1" tooltips="1" connect="1" arrows="1" fold="1" page="0" pageScale="1" pageWidth="850" pageHeight="1100" math="0" shadow="0">
            <root>
                <mxCell id="mt-Fbs9IXoutqaIbIwDb-0"/>
                <mxCell id="mt-Fbs9IXoutqaIbIwDb-1" parent="mt-Fbs9IXoutqaIbIwDb-0"/>
                <mxCell id="mt-Fbs9IXoutqaIbIwDb-30" value="Wikidata.json" style="swimlane;fillColor=#fff2cc;strokeColor=#d6b656;" vertex="1" parent="mt-Fbs9IXoutqaIbIwDb-1">
                    <mxGeometry x="400" y="-360" width="360" height="160" as="geometry"/>
                </mxCell>
                <mxCell id="mt-Fbs9IXoutqaIbIwDb-31" value="&quot;wikidata_name&quot;: string" style="swimlane;fillColor=#e1d5e7;strokeColor=#9673a6;" vertex="1" parent="mt-Fbs9IXoutqaIbIwDb-30">
                    <mxGeometry x="10" y="30" width="340" height="40" as="geometry"/>
                </mxCell>
                <mxCell id="mt-Fbs9IXoutqaIbIwDb-32" value="&quot;wikidata_details&quot;: { obj }" style="swimlane;fillColor=#e1d5e7;strokeColor=#9673a6;" vertex="1" parent="mt-Fbs9IXoutqaIbIwDb-30">
                    <mxGeometry x="10" y="80" width="340" height="70" as="geometry"/>
                </mxCell>
                <mxCell id="mt-Fbs9IXoutqaIbIwDb-33" value="'key': [ { &quot;data&quot;: 'value' } ]" style="rounded=0;whiteSpace=wrap;html=1;" vertex="1" parent="mt-Fbs9IXoutqaIbIwDb-32">
                    <mxGeometry x="10" y="30" width="320" height="30" as="geometry"/>
                </mxCell>
                <mxCell id="mt-Fbs9IXoutqaIbIwDb-47" value="train-500k.json" style="swimlane;fillColor=#fff2cc;strokeColor=#d6b656;" vertex="1" parent="mt-Fbs9IXoutqaIbIwDb-1">
                    <mxGeometry x="800" y="-360" width="360" height="130" as="geometry"/>
                </mxCell>
                <mxCell id="mt-Fbs9IXoutqaIbIwDb-48" value="&quot;doc_title&quot;: string" style="swimlane;fillColor=#e1d5e7;strokeColor=#9673a6;" vertex="1" parent="mt-Fbs9IXoutqaIbIwDb-47">
                    <mxGeometry x="10" y="30" width="340" height="40" as="geometry"/>
                </mxCell>
                <mxCell id="mt-Fbs9IXoutqaIbIwDb-49" value="&quot;text&quot;: string" style="swimlane;fillColor=#e1d5e7;strokeColor=#9673a6;" vertex="1" parent="mt-Fbs9IXoutqaIbIwDb-47">
                    <mxGeometry x="10" y="80" width="340" height="40" as="geometry"/>
                </mxCell>
                <mxCell id="mt-Fbs9IXoutqaIbIwDb-50" style="edgeStyle=orthogonalEdgeStyle;rounded=1;orthogonalLoop=1;jettySize=auto;html=1;exitX=1;exitY=0.5;exitDx=0;exitDy=0;entryX=0;entryY=0.5;entryDx=0;entryDy=0;startArrow=diamondThin;startFill=1;endArrow=diamondThin;endFill=1;" edge="1" parent="mt-Fbs9IXoutqaIbIwDb-1" source="mt-Fbs9IXoutqaIbIwDb-31" target="mt-Fbs9IXoutqaIbIwDb-48">
                    <mxGeometry relative="1" as="geometry"/>
                </mxCell>
                <mxCell id="mt-Fbs9IXoutqaIbIwDb-79" value="Infobox.json" style="swimlane;fillColor=#fff2cc;strokeColor=#d6b656;" vertex="1" parent="mt-Fbs9IXoutqaIbIwDb-1">
                    <mxGeometry y="-360" width="360" height="160" as="geometry"/>
                </mxCell>
                <mxCell id="mt-Fbs9IXoutqaIbIwDb-80" value="&quot;title&quot;: string" style="swimlane;fillColor=#e1d5e7;strokeColor=#9673a6;" vertex="1" parent="mt-Fbs9IXoutqaIbIwDb-79">
                    <mxGeometry x="10" y="30" width="340" height="40" as="geometry"/>
                </mxCell>
                <mxCell id="mt-Fbs9IXoutqaIbIwDb-81" value="&quot;infobox&quot;: { obj }" style="swimlane;fillColor=#e1d5e7;strokeColor=#9673a6;" vertex="1" parent="mt-Fbs9IXoutqaIbIwDb-79">
                    <mxGeometry x="10" y="80" width="340" height="70" as="geometry"/>
                </mxCell>
                <mxCell id="mt-Fbs9IXoutqaIbIwDb-82" value="'key': 'value'" style="rounded=0;whiteSpace=wrap;html=1;" vertex="1" parent="mt-Fbs9IXoutqaIbIwDb-81">
                    <mxGeometry x="10" y="30" width="320" height="30" as="geometry"/>
                </mxCell>
                <mxCell id="mt-Fbs9IXoutqaIbIwDb-83" style="edgeStyle=orthogonalEdgeStyle;rounded=1;orthogonalLoop=1;jettySize=auto;html=1;exitX=1;exitY=0.5;exitDx=0;exitDy=0;entryX=0;entryY=0.5;entryDx=0;entryDy=0;startArrow=diamondThin;startFill=1;endArrow=diamondThin;endFill=1;" edge="1" parent="mt-Fbs9IXoutqaIbIwDb-1" source="mt-Fbs9IXoutqaIbIwDb-80" target="mt-Fbs9IXoutqaIbIwDb-31">
                    <mxGeometry relative="1" as="geometry"/>
                </mxCell>
                <mxCell id="5taa1ezfkxbZ-zN7WFe4-4" style="edgeStyle=orthogonalEdgeStyle;rounded=1;orthogonalLoop=1;jettySize=auto;html=1;exitX=0.5;exitY=1;exitDx=0;exitDy=0;entryX=0.5;entryY=0;entryDx=0;entryDy=0;startArrow=none;" edge="1" parent="mt-Fbs9IXoutqaIbIwDb-1" source="CINZvZjeK-djgKFsM8F--0" target="5taa1ezfkxbZ-zN7WFe4-0">
                    <mxGeometry relative="1" as="geometry"/>
                </mxCell>
                <mxCell id="gp6QegcRwPKqfZILbQ12-0" value="tabledata.wadt" style="swimlane;fillColor=#fff2cc;strokeColor=#d6b656;" vertex="1" parent="mt-Fbs9IXoutqaIbIwDb-1">
                    <mxGeometry x="1120" width="360" height="190" as="geometry"/>
                </mxCell>
                <mxCell id="gp6QegcRwPKqfZILbQ12-1" value="&quot;article&quot;: string" style="swimlane;fillColor=#e1d5e7;strokeColor=#9673a6;" vertex="1" parent="gp6QegcRwPKqfZILbQ12-0">
                    <mxGeometry x="10" y="30" width="340" height="30" as="geometry"/>
                </mxCell>
                <mxCell id="gp6QegcRwPKqfZILbQ12-2" value="&quot;types&quot;: array[string], len = X" style="swimlane;fillColor=#e1d5e7;strokeColor=#9673a6;" vertex="1" parent="gp6QegcRwPKqfZILbQ12-0">
                    <mxGeometry x="10" y="70" width="340" height="30" as="geometry"/>
                </mxCell>
                <mxCell id="gp6QegcRwPKqfZILbQ12-5" value="&quot;values&quot;: array[string], len = X" style="swimlane;fillColor=#e1d5e7;strokeColor=#9673a6;" vertex="1" parent="gp6QegcRwPKqfZILbQ12-0">
                    <mxGeometry x="10" y="110" width="340" height="30" as="geometry"/>
                </mxCell>
                <mxCell id="gp6QegcRwPKqfZILbQ12-6" value="&quot;tokens&quot;: array[string], len = ?" style="swimlane;fillColor=#e1d5e7;strokeColor=#9673a6;" vertex="1" parent="gp6QegcRwPKqfZILbQ12-0">
                    <mxGeometry x="10" y="150" width="340" height="30" as="geometry"/>
                </mxCell>
                <mxCell id="gp6QegcRwPKqfZILbQ12-8" style="edgeStyle=orthogonalEdgeStyle;rounded=1;orthogonalLoop=1;jettySize=auto;html=1;exitX=0.75;exitY=1;exitDx=0;exitDy=0;entryX=0;entryY=0.5;entryDx=0;entryDy=0;" edge="1" parent="mt-Fbs9IXoutqaIbIwDb-1" source="mt-Fbs9IXoutqaIbIwDb-81" target="gp6QegcRwPKqfZILbQ12-2">
                    <mxGeometry relative="1" as="geometry"/>
                </mxCell>
                <mxCell id="gp6QegcRwPKqfZILbQ12-9" style="edgeStyle=orthogonalEdgeStyle;rounded=1;orthogonalLoop=1;jettySize=auto;html=1;exitX=0.25;exitY=1;exitDx=0;exitDy=0;entryX=0;entryY=0.5;entryDx=0;entryDy=0;" edge="1" parent="mt-Fbs9IXoutqaIbIwDb-1" source="mt-Fbs9IXoutqaIbIwDb-81" target="gp6QegcRwPKqfZILbQ12-5">
                    <mxGeometry relative="1" as="geometry"/>
                </mxCell>
                <mxCell id="gp6QegcRwPKqfZILbQ12-10" style="edgeStyle=orthogonalEdgeStyle;rounded=1;orthogonalLoop=1;jettySize=auto;html=1;exitX=0.25;exitY=1;exitDx=0;exitDy=0;entryX=0;entryY=0.5;entryDx=0;entryDy=0;" edge="1" parent="mt-Fbs9IXoutqaIbIwDb-1" source="mt-Fbs9IXoutqaIbIwDb-33" target="gp6QegcRwPKqfZILbQ12-2">
                    <mxGeometry relative="1" as="geometry"/>
                </mxCell>
                <mxCell id="gp6QegcRwPKqfZILbQ12-11" style="edgeStyle=orthogonalEdgeStyle;rounded=1;orthogonalLoop=1;jettySize=auto;html=1;exitX=0.75;exitY=1;exitDx=0;exitDy=0;entryX=0;entryY=0.5;entryDx=0;entryDy=0;" edge="1" parent="mt-Fbs9IXoutqaIbIwDb-1" source="mt-Fbs9IXoutqaIbIwDb-33" target="gp6QegcRwPKqfZILbQ12-5">
                    <mxGeometry relative="1" as="geometry"/>
                </mxCell>
                <mxCell id="gp6QegcRwPKqfZILbQ12-12" style="edgeStyle=orthogonalEdgeStyle;rounded=1;orthogonalLoop=1;jettySize=auto;html=1;exitX=0.75;exitY=1;exitDx=0;exitDy=0;entryX=0;entryY=0.5;entryDx=0;entryDy=0;" edge="1" parent="mt-Fbs9IXoutqaIbIwDb-1" source="mt-Fbs9IXoutqaIbIwDb-49" target="gp6QegcRwPKqfZILbQ12-6">
                    <mxGeometry relative="1" as="geometry"/>
                </mxCell>
                <mxCell id="8v0_kJAFLq44J56HOGvN-3" value="clean_data.py&lt;br&gt;---------------------------------&lt;br&gt;only saves articles that are present in infobox/wikidata AND train" style="rounded=0;whiteSpace=wrap;html=1;fillColor=#f8cecc;strokeColor=#b85450;" vertex="1" parent="mt-Fbs9IXoutqaIbIwDb-1">
                    <mxGeometry x="40" y="-120" width="1080" height="60" as="geometry"/>
                </mxCell>
                <mxCell id="UpN0Xlzt3wlarB9m3Ve9-2" style="edgeStyle=orthogonalEdgeStyle;rounded=1;orthogonalLoop=1;jettySize=auto;html=1;exitX=0.5;exitY=1;exitDx=0;exitDy=0;entryX=0;entryY=0.25;entryDx=0;entryDy=0;" edge="1" parent="mt-Fbs9IXoutqaIbIwDb-1" source="gzkTRqu0BZdjfJZZ4CzP-0" target="UpN0Xlzt3wlarB9m3Ve9-0">
                    <mxGeometry relative="1" as="geometry"/>
                </mxCell>
                <mxCell id="UpN0Xlzt3wlarB9m3Ve9-3" style="edgeStyle=orthogonalEdgeStyle;rounded=1;orthogonalLoop=1;jettySize=auto;html=1;exitX=0.5;exitY=1;exitDx=0;exitDy=0;entryX=0;entryY=0.5;entryDx=0;entryDy=0;" edge="1" parent="mt-Fbs9IXoutqaIbIwDb-1" source="gzkTRqu0BZdjfJZZ4CzP-3" target="UpN0Xlzt3wlarB9m3Ve9-0">
                    <mxGeometry relative="1" as="geometry"/>
                </mxCell>
                <mxCell id="UpN0Xlzt3wlarB9m3Ve9-4" style="edgeStyle=orthogonalEdgeStyle;rounded=1;orthogonalLoop=1;jettySize=auto;html=1;exitX=0.5;exitY=1;exitDx=0;exitDy=0;entryX=0;entryY=0.75;entryDx=0;entryDy=0;" edge="1" parent="mt-Fbs9IXoutqaIbIwDb-1" source="gzkTRqu0BZdjfJZZ4CzP-6" target="UpN0Xlzt3wlarB9m3Ve9-0">
                    <mxGeometry relative="1" as="geometry"/>
                </mxCell>
                <mxCell id="gzkTRqu0BZdjfJZZ4CzP-9" style="edgeStyle=orthogonalEdgeStyle;rounded=1;orthogonalLoop=1;jettySize=auto;html=1;exitX=1;exitY=0.5;exitDx=0;exitDy=0;entryX=0.5;entryY=0;entryDx=0;entryDy=0;" edge="1" parent="mt-Fbs9IXoutqaIbIwDb-1" source="gp6QegcRwPKqfZILbQ12-2" target="gzkTRqu0BZdjfJZZ4CzP-0">
                    <mxGeometry relative="1" as="geometry">
                        <Array as="points">
                            <mxPoint x="1640" y="85"/>
                        </Array>
                    </mxGeometry>
                </mxCell>
                <mxCell id="gzkTRqu0BZdjfJZZ4CzP-11" style="edgeStyle=orthogonalEdgeStyle;rounded=1;orthogonalLoop=1;jettySize=auto;html=1;exitX=1;exitY=0.5;exitDx=0;exitDy=0;entryX=0.5;entryY=0;entryDx=0;entryDy=0;" edge="1" parent="mt-Fbs9IXoutqaIbIwDb-1" source="gp6QegcRwPKqfZILbQ12-5" target="gzkTRqu0BZdjfJZZ4CzP-3">
                    <mxGeometry relative="1" as="geometry">
                        <Array as="points">
                            <mxPoint x="1580" y="125"/>
                            <mxPoint x="1580" y="320"/>
                            <mxPoint x="1440" y="320"/>
                        </Array>
                    </mxGeometry>
                </mxCell>
                <mxCell id="gzkTRqu0BZdjfJZZ4CzP-12" style="edgeStyle=orthogonalEdgeStyle;rounded=1;orthogonalLoop=1;jettySize=auto;html=1;exitX=1;exitY=0.5;exitDx=0;exitDy=0;entryX=0.5;entryY=0;entryDx=0;entryDy=0;" edge="1" parent="mt-Fbs9IXoutqaIbIwDb-1" source="gp6QegcRwPKqfZILbQ12-6" target="gzkTRqu0BZdjfJZZ4CzP-6">
                    <mxGeometry relative="1" as="geometry">
                        <Array as="points">
                            <mxPoint x="1520" y="165"/>
                            <mxPoint x="1520" y="280"/>
                            <mxPoint x="1240" y="280"/>
                        </Array>
                    </mxGeometry>
                </mxCell>
                <mxCell id="0aRPXaWMEm3_3bhVI4pX-1" style="edgeStyle=orthogonalEdgeStyle;rounded=1;orthogonalLoop=1;jettySize=auto;html=1;exitX=0.5;exitY=1;exitDx=0;exitDy=0;entryX=0.5;entryY=0;entryDx=0;entryDy=0;" edge="1" parent="mt-Fbs9IXoutqaIbIwDb-1" source="5taa1ezfkxbZ-zN7WFe4-0" target="0aRPXaWMEm3_3bhVI4pX-0">
                    <mxGeometry relative="1" as="geometry"/>
                </mxCell>
                <mxCell id="5taa1ezfkxbZ-zN7WFe4-0" value="&quot;pair&quot;: tuple(2)" style="swimlane;fillColor=#d5e8d4;strokeColor=#82b366;" vertex="1" parent="mt-Fbs9IXoutqaIbIwDb-1">
                    <mxGeometry x="1600" y="840" width="520" height="210" as="geometry"/>
                </mxCell>
                <mxCell id="5taa1ezfkxbZ-zN7WFe4-1" value="[0] (input_tensor): tensor[vocab_ID], shape = [3, BATCH_SIZE, PHRASE_SIZE]" style="swimlane;fillColor=#e1d5e7;strokeColor=#9673a6;startSize=23;" vertex="1" parent="5taa1ezfkxbZ-zN7WFe4-0">
                    <mxGeometry x="10" y="30" width="500" height="130" as="geometry"/>
                </mxCell>
                <mxCell id="5taa1ezfkxbZ-zN7WFe4-2" value="[0] (type_input) = BATCH_SIZE righe, PHRASE_SIZE colonne di valori &quot;type&quot;&lt;br&gt;[1] (value_input) = BATCH_SIZE righe, PHRASE_SIZE colonne di valori &quot;value&quot;&lt;br&gt;[2] (position_input) = BATCH_SIZE righe, PHRASE_SIZE con valori da 0 a n-1" style="rounded=0;whiteSpace=wrap;html=1;align=left;spacingLeft=5;" vertex="1" parent="5taa1ezfkxbZ-zN7WFe4-1">
                    <mxGeometry x="10" y="35" width="470" height="85" as="geometry"/>
                </mxCell>
                <mxCell id="5taa1ezfkxbZ-zN7WFe4-3" value="[1] (target_tensor): matrix[vocab_ID], shape = [BATCH_SIZE, PHRASE_SIZE]" style="swimlane;fillColor=#e1d5e7;strokeColor=#9673a6;startSize=23;" vertex="1" parent="5taa1ezfkxbZ-zN7WFe4-0">
                    <mxGeometry x="10" y="170" width="500" height="30" as="geometry"/>
                </mxCell>
                <mxCell id="CINZvZjeK-djgKFsM8F--0" value="ragruppa gli articoli in batch" style="rounded=0;whiteSpace=wrap;html=1;align=left;spacingLeft=4;" vertex="1" parent="mt-Fbs9IXoutqaIbIwDb-1">
                    <mxGeometry x="1775" y="760" width="170" height="40" as="geometry"/>
                </mxCell>
                <mxCell id="CINZvZjeK-djgKFsM8F--1" value="" style="edgeStyle=orthogonalEdgeStyle;rounded=1;orthogonalLoop=1;jettySize=auto;html=1;exitX=0.5;exitY=1;exitDx=0;exitDy=0;entryX=0.5;entryY=0;entryDx=0;entryDy=0;endArrow=none;startArrow=none;" edge="1" parent="mt-Fbs9IXoutqaIbIwDb-1" source="UpN0Xlzt3wlarB9m3Ve9-0" target="CINZvZjeK-djgKFsM8F--0">
                    <mxGeometry relative="1" as="geometry">
                        <mxPoint x="1480" y="47.5" as="sourcePoint"/>
                        <mxPoint x="1860" y="440" as="targetPoint"/>
                    </mxGeometry>
                </mxCell>
                <mxCell id="UpN0Xlzt3wlarB9m3Ve9-0" value="valori sostituiti con gli ID del vocabolario appropriato" style="rounded=0;whiteSpace=wrap;html=1;" vertex="1" parent="mt-Fbs9IXoutqaIbIwDb-1">
                    <mxGeometry x="1760" y="640" width="200" height="60" as="geometry"/>
                </mxCell>
                <mxCell id="UpN0Xlzt3wlarB9m3Ve9-1" value="" style="edgeStyle=orthogonalEdgeStyle;rounded=1;orthogonalLoop=1;jettySize=auto;html=1;exitX=1;exitY=0.25;exitDx=0;exitDy=0;entryX=0.5;entryY=0;entryDx=0;entryDy=0;endArrow=none;" edge="1" parent="mt-Fbs9IXoutqaIbIwDb-1" source="gp6QegcRwPKqfZILbQ12-0" target="UpN0Xlzt3wlarB9m3Ve9-0">
                    <mxGeometry relative="1" as="geometry">
                        <mxPoint x="1480" y="47.5" as="sourcePoint"/>
                        <mxPoint x="1860" y="520" as="targetPoint"/>
                    </mxGeometry>
                </mxCell>
                <mxCell id="0aRPXaWMEm3_3bhVI4pX-0" value="&quot;pairs&quot;: array[pair], len = ITER / BATCH_SIZE" style="swimlane;fillColor=#d5e8d4;strokeColor=#82b366;" vertex="1" parent="mt-Fbs9IXoutqaIbIwDb-1">
                    <mxGeometry x="1600" y="1120" width="520" height="40" as="geometry"/>
                </mxCell>
                <mxCell id="0aRPXaWMEm3_3bhVI4pX-2" value="load_data.py" style="swimlane;horizontal=0;fillColor=#f8cecc;strokeColor=#b85450;" vertex="1" parent="mt-Fbs9IXoutqaIbIwDb-1">
                    <mxGeometry x="1020" y="400" width="1140" height="680" as="geometry"/>
                </mxCell>
                <mxCell id="gzkTRqu0BZdjfJZZ4CzP-0" value="&quot;type_vocab&quot;: vocab" style="swimlane;fillColor=#d5e8d4;strokeColor=#82b366;" vertex="1" parent="0aRPXaWMEm3_3bhVI4pX-2">
                    <mxGeometry x="540" y="60" width="160" height="110" as="geometry"/>
                </mxCell>
                <mxCell id="gzkTRqu0BZdjfJZZ4CzP-1" value="word2ID" style="rounded=0;whiteSpace=wrap;html=1;" vertex="1" parent="gzkTRqu0BZdjfJZZ4CzP-0">
                    <mxGeometry x="10" y="30" width="140" height="30" as="geometry"/>
                </mxCell>
                <mxCell id="gzkTRqu0BZdjfJZZ4CzP-2" value="size" style="rounded=0;whiteSpace=wrap;html=1;" vertex="1" parent="gzkTRqu0BZdjfJZZ4CzP-0">
                    <mxGeometry x="10" y="70" width="140" height="30" as="geometry"/>
                </mxCell>
                <mxCell id="gzkTRqu0BZdjfJZZ4CzP-3" value="&quot;value_vocab&quot;: vocab" style="swimlane;fillColor=#d5e8d4;strokeColor=#82b366;" vertex="1" parent="0aRPXaWMEm3_3bhVI4pX-2">
                    <mxGeometry x="340" y="60" width="160" height="110" as="geometry"/>
                </mxCell>
                <mxCell id="gzkTRqu0BZdjfJZZ4CzP-4" value="word2ID" style="rounded=0;whiteSpace=wrap;html=1;" vertex="1" parent="gzkTRqu0BZdjfJZZ4CzP-3">
                    <mxGeometry x="10" y="30" width="140" height="30" as="geometry"/>
                </mxCell>
                <mxCell id="gzkTRqu0BZdjfJZZ4CzP-5" value="size" style="rounded=0;whiteSpace=wrap;html=1;" vertex="1" parent="gzkTRqu0BZdjfJZZ4CzP-3">
                    <mxGeometry x="10" y="70" width="140" height="30" as="geometry"/>
                </mxCell>
                <mxCell id="gzkTRqu0BZdjfJZZ4CzP-6" value="&quot;token_vocab&quot;: vocab" style="swimlane;fillColor=#d5e8d4;strokeColor=#82b366;" vertex="1" parent="0aRPXaWMEm3_3bhVI4pX-2">
                    <mxGeometry x="140" y="60" width="160" height="110" as="geometry"/>
                </mxCell>
                <mxCell id="gzkTRqu0BZdjfJZZ4CzP-7" value="word2ID" style="rounded=0;whiteSpace=wrap;html=1;" vertex="1" parent="gzkTRqu0BZdjfJZZ4CzP-6">
                    <mxGeometry x="10" y="30" width="140" height="30" as="geometry"/>
                </mxCell>
                <mxCell id="gzkTRqu0BZdjfJZZ4CzP-8" value="size" style="rounded=0;whiteSpace=wrap;html=1;" vertex="1" parent="gzkTRqu0BZdjfJZZ4CzP-6">
                    <mxGeometry x="10" y="70" width="140" height="30" as="geometry"/>
                </mxCell>
            </root>
        </mxGraphModel>
    </diagram>
</mxfile>